# xmcd
#
# Track frame offsets: 
#        150
#        10945
#        27460
#        51567
#        64235
#        79407
#        100420
#        112965
#        135647
#        152685
#        175722
#        178532
#        213200
#        230760
#        246640
#
# Disc length: 3548 seconds
#
# Revision: 12
# Processed by: cddbd v1.5.2PL0 Copyright (c) Steve Scherf et al.
# Submitted via: ExactAudioCopy v0.99pb4
#
DISCID=d40dda0f
DTITLE=Stevie Ray Vaughan And Double Trouble - Texas Flood
DYEAR=1999
DGENRE=Blues
TTITLE0=Love Struck Baby
TTITLE1=Pride And Joy
TTITLE2=Texas Flood
TTITLE3=Tell Me
TTITLE4=Testify
TTITLE5=Rude Mood
TTITLE6=Mary Had A Little Lamb
TTITLE7=Dirty Pool
TTITLE8=I'm Cryin'
TTITLE9=Lenny
TTITLE10=SRV Speaks
TTITLE11=Tin Pan Alley (aka Roughest Place In Town)
TTITLE12=Testify (Live)
TTITLE13=Mary Had A Little Lamb (Live)
TTITLE14=Wham! (Live)
EXTD=
EXTT0=
EXTT1=
EXTT2=
EXTT3=
EXTT4=
EXTT5=
EXTT6=
EXTT7=
EXTT8=
EXTT9=
EXTT10=Bonus Track
EXTT11=Bonus Track
EXTT12=Bonus Track
EXTT13=Bonus Track
EXTT14=Bonus Track
PLAYORDER=
